<mxfile host="app.diagrams.net" modified="2024-04-08T05:43:46.059Z" agent="Mozilla/5.0 (Windows NT 10.0; Win64; x64; rv:125.0) Gecko/20100101 Firefox/125.0" etag="xe_sBgpd52KkqKfNPORt" version="24.2.0" type="device">
  <diagram id="zkX_Ij1qU_FOuQ2T3JUF" name="Page-1">
    <mxGraphModel dx="-2576" dy="6021" grid="1" gridSize="10" guides="1" tooltips="1" connect="1" arrows="1" fold="1" page="1" pageScale="1" pageWidth="3200" pageHeight="2500" background="#FFFFFF" math="0" shadow="0">
      <root>
        <mxCell id="0" />
        <mxCell id="1" parent="0" />
        <mxCell id="biBuhSFXarAVXknmqJCp-284" value="" style="edgeStyle=orthogonalEdgeStyle;rounded=0;orthogonalLoop=1;jettySize=auto;html=1;dashed=1;" parent="1" source="2" target="49" edge="1">
          <mxGeometry relative="1" as="geometry">
            <Array as="points">
              <mxPoint x="6080" y="-3750" />
              <mxPoint x="6250" y="-3750" />
              <mxPoint x="6250" y="-3969" />
            </Array>
          </mxGeometry>
        </mxCell>
        <mxCell id="2" value="Location" style="swimlane;fontStyle=0;align=center;verticalAlign=top;childLayout=stackLayout;horizontal=1;startSize=55;horizontalStack=0;resizeParent=1;resizeParentMax=0;resizeLast=0;collapsible=0;marginBottom=0;html=1;" parent="1" vertex="1">
          <mxGeometry x="5930" y="-3721" width="420" height="385" as="geometry" />
        </mxCell>
        <mxCell id="3" value="attributes" style="text;html=1;strokeColor=none;fillColor=none;align=center;verticalAlign=middle;spacingLeft=4;spacingRight=4;overflow=hidden;rotatable=0;points=[[0,0.5],[1,0.5]];portConstraint=eastwest;" parent="2" vertex="1">
          <mxGeometry y="55" width="420" height="20" as="geometry" />
        </mxCell>
        <mxCell id="4" value="&lt;div&gt;- name: String&lt;/div&gt;&lt;div&gt;- address: String&lt;/div&gt;&lt;div&gt;- occupants: HashSet&amp;lt;DisasterVictim&amp;gt;&lt;/div&gt;&lt;div&gt;- supplies: HashSet&amp;lt;Supply&amp;gt;&lt;/div&gt;" style="text;html=1;strokeColor=none;fillColor=none;align=left;verticalAlign=middle;spacingLeft=4;spacingRight=4;overflow=hidden;rotatable=0;points=[[0,0.5],[1,0.5]];portConstraint=eastwest;" parent="2" vertex="1">
          <mxGeometry y="75" width="420" height="75" as="geometry" />
        </mxCell>
        <mxCell id="7" value="" style="line;strokeWidth=1;fillColor=none;align=left;verticalAlign=middle;spacingTop=-1;spacingLeft=3;spacingRight=3;rotatable=0;labelPosition=right;points=[];portConstraint=eastwest;" parent="2" vertex="1">
          <mxGeometry y="150" width="420" height="8" as="geometry" />
        </mxCell>
        <mxCell id="8" value="operations" style="text;html=1;strokeColor=none;fillColor=none;align=center;verticalAlign=middle;spacingLeft=4;spacingRight=4;overflow=hidden;rotatable=0;points=[[0,0.5],[1,0.5]];portConstraint=eastwest;" parent="2" vertex="1">
          <mxGeometry y="158" width="420" height="20" as="geometry" />
        </mxCell>
        <mxCell id="9" value="&lt;div&gt;+ Location(name:String, address:String)&lt;/div&gt;&lt;div&gt;+ getName(): String&lt;/div&gt;&lt;div&gt;+ setName(name: String): void&lt;br&gt;&lt;/div&gt;&lt;div&gt;+ getAddress(): String&lt;/div&gt;&lt;div&gt;+ setAddress(address: String)&lt;/div&gt;&lt;div&gt;+ getOccupants(): DisasterVictim&lt;br&gt;&lt;/div&gt;&lt;div&gt;+ setOccupants(occupants: HashSet&amp;lt;DisasterVictim&amp;gt;): void&lt;br&gt;&lt;/div&gt;&lt;div&gt;+ getSupplies(): HashSet&amp;lt;Supply&amp;gt;&lt;/div&gt;&lt;div&gt;+ setSupplies(supplies: HashSet&amp;lt;Supply&amp;gt;): void&lt;br&gt;&lt;/div&gt;&lt;div&gt;+ addOccupant(occupant:DisasterVictim): void&lt;br&gt;&lt;/div&gt;&lt;div&gt;+ removeOccupant(occupant: DisasterVictim): void&lt;br&gt;&lt;/div&gt;&lt;div&gt;+ addSupply(supply: Supply): void&lt;br&gt;&lt;/div&gt;&lt;div&gt;+ removeSupply(supply:Supply): void&lt;br&gt;&lt;/div&gt;" style="text;html=1;strokeColor=none;fillColor=none;align=left;verticalAlign=middle;spacingLeft=4;spacingRight=4;overflow=hidden;rotatable=0;points=[[0,0.5],[1,0.5]];portConstraint=eastwest;" parent="2" vertex="1">
          <mxGeometry y="178" width="420" height="207" as="geometry" />
        </mxCell>
        <mxCell id="26" value="FamilyRelation" style="swimlane;fontStyle=0;align=center;verticalAlign=top;childLayout=stackLayout;horizontal=1;startSize=55;horizontalStack=0;resizeParent=1;resizeParentMax=0;resizeLast=0;collapsible=0;marginBottom=0;html=1;" parent="1" vertex="1">
          <mxGeometry x="4280" y="-4280" width="280" height="210" as="geometry" />
        </mxCell>
        <mxCell id="27" value="attributes" style="text;html=1;strokeColor=none;fillColor=none;align=center;verticalAlign=middle;spacingLeft=4;spacingRight=4;overflow=hidden;rotatable=0;points=[[0,0.5],[1,0.5]];portConstraint=eastwest;" parent="26" vertex="1">
          <mxGeometry y="55" width="280" height="20" as="geometry" />
        </mxCell>
        <mxCell id="28" value="&lt;div&gt;- personOne: DisasterVictim&lt;/div&gt;&lt;div&gt;- relationshipTo: String&lt;/div&gt;&lt;div&gt;- personTwo: DisasterVictim&lt;/div&gt;" style="text;html=1;strokeColor=none;fillColor=none;align=left;verticalAlign=middle;spacingLeft=4;spacingRight=4;overflow=hidden;rotatable=0;points=[[0,0.5],[1,0.5]];portConstraint=eastwest;" parent="26" vertex="1">
          <mxGeometry y="75" width="280" height="55" as="geometry" />
        </mxCell>
        <mxCell id="31" value="" style="line;strokeWidth=1;fillColor=none;align=left;verticalAlign=middle;spacingTop=-1;spacingLeft=3;spacingRight=3;rotatable=0;labelPosition=right;points=[];portConstraint=eastwest;" parent="26" vertex="1">
          <mxGeometry y="130" width="280" height="8" as="geometry" />
        </mxCell>
        <mxCell id="32" value="operations" style="text;html=1;strokeColor=none;fillColor=none;align=center;verticalAlign=middle;spacingLeft=4;spacingRight=4;overflow=hidden;rotatable=0;points=[[0,0.5],[1,0.5]];portConstraint=eastwest;" parent="26" vertex="1">
          <mxGeometry y="138" width="280" height="20" as="geometry" />
        </mxCell>
        <mxCell id="79" value="&lt;div&gt;+ FamilyRelation(personOne: DisasterVictim,&lt;/div&gt;&lt;div&gt;relationshipTo: String, personTwo: DisasterVictim)&lt;/div&gt;" style="text;html=1;strokeColor=none;fillColor=none;align=left;verticalAlign=middle;spacingLeft=4;spacingRight=4;overflow=hidden;rotatable=0;points=[[0,0.5],[1,0.5]];portConstraint=eastwest;" parent="26" vertex="1">
          <mxGeometry y="158" width="280" height="52" as="geometry" />
        </mxCell>
        <mxCell id="142" style="edgeStyle=orthogonalEdgeStyle;rounded=1;html=1;exitX=0.5;exitY=0;exitDx=0;exitDy=0;entryX=0.888;entryY=0.991;entryDx=0;entryDy=0;entryPerimeter=0;dashed=1;fillColor=#60a917;strokeColor=#000000;" parent="1" source="34" target="132" edge="1">
          <mxGeometry relative="1" as="geometry">
            <Array as="points">
              <mxPoint x="5630" y="-3220" />
              <mxPoint x="5630" y="-3250" />
              <mxPoint x="6380" y="-3250" />
              <mxPoint x="6380" y="-4500" />
              <mxPoint x="6042" y="-4500" />
            </Array>
          </mxGeometry>
        </mxCell>
        <mxCell id="34" value="Supply" style="swimlane;fontStyle=0;align=center;verticalAlign=top;childLayout=stackLayout;horizontal=1;startSize=55;horizontalStack=0;resizeParent=1;resizeParentMax=0;resizeLast=0;collapsible=0;marginBottom=0;html=1;" parent="1" vertex="1">
          <mxGeometry x="5510" y="-3220" width="230" height="210" as="geometry" />
        </mxCell>
        <mxCell id="35" value="attributes" style="text;html=1;strokeColor=none;fillColor=none;align=center;verticalAlign=middle;spacingLeft=4;spacingRight=4;overflow=hidden;rotatable=0;points=[[0,0.5],[1,0.5]];portConstraint=eastwest;" parent="34" vertex="1">
          <mxGeometry y="55" width="230" height="20" as="geometry" />
        </mxCell>
        <mxCell id="36" value="&lt;div&gt;- description: String&lt;/div&gt;&lt;div&gt;- quantity: int&lt;/div&gt;" style="text;html=1;strokeColor=none;fillColor=none;align=left;verticalAlign=middle;spacingLeft=4;spacingRight=4;overflow=hidden;rotatable=0;points=[[0,0.5],[1,0.5]];portConstraint=eastwest;" parent="34" vertex="1">
          <mxGeometry y="75" width="230" height="45" as="geometry" />
        </mxCell>
        <mxCell id="39" value="" style="line;strokeWidth=1;fillColor=none;align=left;verticalAlign=middle;spacingTop=-1;spacingLeft=3;spacingRight=3;rotatable=0;labelPosition=right;points=[];portConstraint=eastwest;" parent="34" vertex="1">
          <mxGeometry y="120" width="230" height="8" as="geometry" />
        </mxCell>
        <mxCell id="40" value="operations" style="text;html=1;strokeColor=none;fillColor=none;align=center;verticalAlign=middle;spacingLeft=4;spacingRight=4;overflow=hidden;rotatable=0;points=[[0,0.5],[1,0.5]];portConstraint=eastwest;" parent="34" vertex="1">
          <mxGeometry y="128" width="230" height="20" as="geometry" />
        </mxCell>
        <mxCell id="41" value="&lt;div&gt;+ Supply(description: String, quantity: int)&lt;/div&gt;&lt;div&gt;+ getQuantity(): int&lt;/div&gt;&lt;div&gt;+ setQuantity(quantity: int): void&lt;/div&gt;" style="text;html=1;strokeColor=none;fillColor=none;align=left;verticalAlign=middle;spacingLeft=4;spacingRight=4;overflow=hidden;rotatable=0;points=[[0,0.5],[1,0.5]];portConstraint=eastwest;" parent="34" vertex="1">
          <mxGeometry y="148" width="230" height="62" as="geometry" />
        </mxCell>
        <mxCell id="140" style="edgeStyle=orthogonalEdgeStyle;rounded=1;html=1;exitX=0.5;exitY=0;exitDx=0;exitDy=0;entryX=0.601;entryY=1.035;entryDx=0;entryDy=0;entryPerimeter=0;dashed=1;fillColor=#60a917;strokeColor=#000000;" parent="1" source="42" target="132" edge="1">
          <mxGeometry relative="1" as="geometry">
            <Array as="points">
              <mxPoint x="6075" y="-4210" />
              <mxPoint x="5970" y="-4210" />
            </Array>
          </mxGeometry>
        </mxCell>
        <mxCell id="162" style="edgeStyle=orthogonalEdgeStyle;rounded=1;html=1;entryX=0.731;entryY=1.014;entryDx=0;entryDy=0;entryPerimeter=0;dashed=1;fillColor=#60a917;strokeColor=#000000;exitX=0.682;exitY=-0.001;exitDx=0;exitDy=0;exitPerimeter=0;" parent="1" source="42" target="166" edge="1">
          <mxGeometry relative="1" as="geometry">
            <mxPoint x="6250" y="-4210" as="sourcePoint" />
            <Array as="points">
              <mxPoint x="6131" y="-4750" />
              <mxPoint x="5060" y="-4750" />
              <mxPoint x="5060" y="-4350" />
              <mxPoint x="4853" y="-4350" />
            </Array>
          </mxGeometry>
        </mxCell>
        <mxCell id="42" value="MedicalRecord" style="swimlane;fontStyle=0;align=center;verticalAlign=top;childLayout=stackLayout;horizontal=1;startSize=55;horizontalStack=0;resizeParent=1;resizeParentMax=0;resizeLast=0;collapsible=0;marginBottom=0;html=1;" parent="1" vertex="1">
          <mxGeometry x="5920" y="-4162.5" width="310" height="230" as="geometry" />
        </mxCell>
        <mxCell id="43" value="attributes" style="text;html=1;strokeColor=none;fillColor=none;align=center;verticalAlign=middle;spacingLeft=4;spacingRight=4;overflow=hidden;rotatable=0;points=[[0,0.5],[1,0.5]];portConstraint=eastwest;" parent="42" vertex="1">
          <mxGeometry y="55" width="310" height="20" as="geometry" />
        </mxCell>
        <mxCell id="44" value="&lt;div&gt;- location: Location&lt;/div&gt;&lt;div&gt;- description: String&lt;/div&gt;&lt;div&gt;- dateOfTreatment: String&lt;/div&gt;" style="text;html=1;strokeColor=none;fillColor=none;align=left;verticalAlign=middle;spacingLeft=4;spacingRight=4;overflow=hidden;rotatable=0;points=[[0,0.5],[1,0.5]];portConstraint=eastwest;" parent="42" vertex="1">
          <mxGeometry y="75" width="310" height="55" as="geometry" />
        </mxCell>
        <mxCell id="47" value="" style="line;strokeWidth=1;fillColor=none;align=left;verticalAlign=middle;spacingTop=-1;spacingLeft=3;spacingRight=3;rotatable=0;labelPosition=right;points=[];portConstraint=eastwest;" parent="42" vertex="1">
          <mxGeometry y="130" width="310" height="8" as="geometry" />
        </mxCell>
        <mxCell id="48" value="operations" style="text;html=1;strokeColor=none;fillColor=none;align=center;verticalAlign=middle;spacingLeft=4;spacingRight=4;overflow=hidden;rotatable=0;points=[[0,0.5],[1,0.5]];portConstraint=eastwest;" parent="42" vertex="1">
          <mxGeometry y="138" width="310" height="20" as="geometry" />
        </mxCell>
        <mxCell id="49" value="&lt;div&gt;+ MedicalRecord(location: Location, treatmentDetails:&lt;/div&gt;&lt;div&gt;string, dateOfTreatment: String)&lt;/div&gt;&lt;div&gt;+ getLocation(): Location&lt;/div&gt;&lt;div&gt;+ setLocation(location: Location): void&lt;/div&gt;" style="text;html=1;strokeColor=none;fillColor=none;align=left;verticalAlign=middle;spacingLeft=4;spacingRight=4;overflow=hidden;rotatable=0;points=[[0,0.5],[1,0.5]];portConstraint=eastwest;" parent="42" vertex="1">
          <mxGeometry y="158" width="310" height="72" as="geometry" />
        </mxCell>
        <mxCell id="143" style="edgeStyle=orthogonalEdgeStyle;rounded=1;html=1;exitX=0.5;exitY=0;exitDx=0;exitDy=0;dashed=1;entryX=0.4;entryY=1.037;entryDx=0;entryDy=0;entryPerimeter=0;fillColor=#60a917;strokeColor=#000000;" parent="1" source="50" target="132" edge="1">
          <mxGeometry relative="1" as="geometry">
            <mxPoint x="5620" y="-3900" as="targetPoint" />
            <Array as="points">
              <mxPoint x="4585" y="-3600" />
              <mxPoint x="5490" y="-3600" />
              <mxPoint x="5490" y="-4320" />
              <mxPoint x="5920" y="-4320" />
            </Array>
          </mxGeometry>
        </mxCell>
        <mxCell id="156" style="edgeStyle=orthogonalEdgeStyle;rounded=1;html=1;exitX=0.374;exitY=0.001;exitDx=0;exitDy=0;entryX=0.23;entryY=0.999;entryDx=0;entryDy=0;entryPerimeter=0;exitPerimeter=0;fillColor=#60a917;strokeColor=#000000;dashed=1;" parent="1" source="50" target="155" edge="1">
          <mxGeometry relative="1" as="geometry">
            <Array as="points">
              <mxPoint x="4533" y="-3630" />
              <mxPoint x="4935" y="-3630" />
              <mxPoint x="4935" y="-3870" />
              <mxPoint x="5135" y="-3870" />
            </Array>
          </mxGeometry>
        </mxCell>
        <mxCell id="231" style="edgeStyle=orthogonalEdgeStyle;rounded=1;jumpStyle=none;html=1;exitX=1.011;exitY=0.689;exitDx=0;exitDy=0;entryX=0.25;entryY=0;entryDx=0;entryDy=0;startArrow=none;startFill=0;endArrow=classic;endFill=1;endSize=14;dashed=1;exitPerimeter=0;" parent="1" source="57" target="80" edge="1">
          <mxGeometry relative="1" as="geometry" />
        </mxCell>
        <mxCell id="234" value="&amp;lt;&amp;lt;use&amp;gt;&amp;gt;" style="edgeLabel;html=1;align=center;verticalAlign=middle;resizable=0;points=[];" parent="231" vertex="1" connectable="0">
          <mxGeometry x="-0.146" relative="1" as="geometry">
            <mxPoint y="-10" as="offset" />
          </mxGeometry>
        </mxCell>
        <mxCell id="50" value="DisasterVictim" style="swimlane;fontStyle=0;align=center;verticalAlign=top;childLayout=stackLayout;horizontal=1;startSize=55;horizontalStack=0;resizeParent=1;resizeParentMax=0;resizeLast=0;collapsible=0;marginBottom=0;html=1;" parent="1" vertex="1">
          <mxGeometry x="4380" y="-3550" width="410" height="500" as="geometry" />
        </mxCell>
        <mxCell id="51" value="attributes" style="text;html=1;strokeColor=none;fillColor=none;align=center;verticalAlign=middle;spacingLeft=4;spacingRight=4;overflow=hidden;rotatable=0;points=[[0,0.5],[1,0.5]];portConstraint=eastwest;" parent="50" vertex="1">
          <mxGeometry y="55" width="410" height="20" as="geometry" />
        </mxCell>
        <mxCell id="52" value="&lt;div&gt;&lt;span style=&quot;background-color: initial;&quot;&gt;- dateOfBirth_Age: String&lt;/span&gt;&lt;br&gt;&lt;/div&gt;&lt;div&gt;&lt;span style=&quot;background-color: initial;&quot;&gt;- d&lt;/span&gt;escription&lt;span style=&quot;background-color: initial;&quot;&gt;: String&lt;/span&gt;&lt;br&gt;&lt;/div&gt;&lt;div&gt;- ASSIGNED_SOCIAL_ID: int&lt;/div&gt;&lt;div&gt;- medicalRecords: ArrayList&amp;lt;MedicalRecord&amp;gt;&lt;/div&gt;&lt;div&gt;- ENTRY_DATE: String&lt;/div&gt;&lt;div&gt;- personalBelongings: HashSet&amp;lt;Supply&amp;gt;&lt;/div&gt;&lt;div&gt;- dietaryPreference: ArrayList&amp;lt;DietaryRestrictions&amp;gt;&lt;/div&gt;&lt;div&gt;-&amp;nbsp;&lt;u&gt;counter:&lt;/u&gt;&amp;nbsp;int&lt;/div&gt;" style="text;html=1;strokeColor=none;fillColor=none;align=left;verticalAlign=middle;spacingLeft=4;spacingRight=4;overflow=hidden;rotatable=0;points=[[0,0.5],[1,0.5]];portConstraint=eastwest;" parent="50" vertex="1">
          <mxGeometry y="75" width="410" height="125" as="geometry" />
        </mxCell>
        <mxCell id="55" value="" style="line;strokeWidth=1;fillColor=none;align=left;verticalAlign=middle;spacingTop=-1;spacingLeft=3;spacingRight=3;rotatable=0;labelPosition=right;points=[];portConstraint=eastwest;" parent="50" vertex="1">
          <mxGeometry y="200" width="410" height="8" as="geometry" />
        </mxCell>
        <mxCell id="56" value="operations" style="text;html=1;strokeColor=none;fillColor=none;align=center;verticalAlign=middle;spacingLeft=4;spacingRight=4;overflow=hidden;rotatable=0;points=[[0,0.5],[1,0.5]];portConstraint=eastwest;" parent="50" vertex="1">
          <mxGeometry y="208" width="410" height="20" as="geometry" />
        </mxCell>
        <mxCell id="57" value="&lt;div&gt;+ DisasterVictim(firstName: String, ENTRY_DATE: String)&lt;/div&gt;&lt;div&gt;+ getDateOfBirth_Age(): String&lt;/div&gt;&lt;div&gt;+ getMedicalRecords(): ArrayList&amp;lt;MedicalRecord&amp;gt;&amp;nbsp;&lt;/div&gt;&lt;div&gt;+ getEntryDate(): String&lt;/div&gt;&lt;div&gt;+ getAssignedSocialID(): int&lt;/div&gt;&lt;div&gt;+ getPersonalBelongings(): HashSet&amp;lt;Supply&amp;gt;&lt;/div&gt;&lt;div&gt;+ setDateOfBirth(dateOfBirth_Age: String): void&lt;/div&gt;&lt;div&gt;+ setApproxAge(dateOFBirth_Age: String): void&lt;/div&gt;&lt;div&gt;+ setMedicalRecords(medicalRecords: MedicalRecord[]): void&lt;/div&gt;&lt;div&gt;+ setPersonalBelongings(supplies: HashSet&amp;lt;Supply&amp;gt;, location: Location)&lt;/div&gt;&lt;div&gt;+ addPersonalBelonging(supply: Supply, location: Location,&amp;nbsp;&lt;/div&gt;&lt;div&gt;quantity: int) :void&lt;/div&gt;&lt;div&gt;+ removePersonalBelonging(supply: Supply) :void&lt;/div&gt;&lt;div&gt;+ addMedicalRecord(medicalRecord:MedicalRecord):void&lt;/div&gt;&lt;div&gt;+ addDietaryPreference(preference: DietaryRestrictions): void&lt;/div&gt;&lt;div&gt;+ removeDietaryPreference(preference: DietaryRestrictions): void&lt;/div&gt;&lt;div&gt;+ getDietaryPreference(): ArrayList&amp;lt;DietaryRestrictions&amp;gt;&lt;/div&gt;" style="text;html=1;strokeColor=none;fillColor=none;align=left;verticalAlign=middle;spacingLeft=4;spacingRight=4;overflow=hidden;rotatable=0;points=[[0,0.5],[1,0.5]];portConstraint=eastwest;" parent="50" vertex="1">
          <mxGeometry y="228" width="410" height="272" as="geometry" />
        </mxCell>
        <mxCell id="139" style="edgeStyle=orthogonalEdgeStyle;html=1;exitX=0.5;exitY=0;exitDx=0;exitDy=0;entryX=0.162;entryY=1.019;entryDx=0;entryDy=0;entryPerimeter=0;dashed=1;rounded=1;fillColor=#60a917;strokeColor=#000000;" parent="1" source="58" target="132" edge="1">
          <mxGeometry relative="1" as="geometry">
            <Array as="points">
              <mxPoint x="5195" y="-3880" />
              <mxPoint x="5470" y="-3880" />
              <mxPoint x="5470" y="-4350" />
              <mxPoint x="5861" y="-4350" />
            </Array>
          </mxGeometry>
        </mxCell>
        <mxCell id="157" style="edgeStyle=orthogonalEdgeStyle;rounded=1;html=1;exitX=0.386;exitY=0.006;exitDx=0;exitDy=0;fillColor=#60a917;strokeColor=#000000;exitPerimeter=0;entryX=0.297;entryY=1.002;entryDx=0;entryDy=0;entryPerimeter=0;dashed=1;" parent="1" source="58" target="155" edge="1">
          <mxGeometry relative="1" as="geometry">
            <mxPoint x="5170" y="-3880" as="targetPoint" />
            <Array as="points">
              <mxPoint x="5160" y="-3851" />
              <mxPoint x="5160" y="-3851" />
              <mxPoint x="5160" y="-3917" />
              <mxPoint x="5160" y="-3917" />
            </Array>
          </mxGeometry>
        </mxCell>
        <mxCell id="58" value="Inquierer" style="swimlane;fontStyle=0;align=center;verticalAlign=top;childLayout=stackLayout;horizontal=1;startSize=55;horizontalStack=0;resizeParent=1;resizeParentMax=0;resizeLast=0;collapsible=0;marginBottom=0;html=1;" parent="1" vertex="1">
          <mxGeometry x="5040" y="-3850" width="310" height="210" as="geometry" />
        </mxCell>
        <mxCell id="59" value="attributes" style="text;html=1;strokeColor=none;fillColor=none;align=center;verticalAlign=middle;spacingLeft=4;spacingRight=4;overflow=hidden;rotatable=0;points=[[0,0.5],[1,0.5]];portConstraint=eastwest;" parent="58" vertex="1">
          <mxGeometry y="55" width="310" height="20" as="geometry" />
        </mxCell>
        <mxCell id="60" value="&lt;div&gt;&lt;span style=&quot;background-color: initial;&quot;&gt;- d&lt;/span&gt;escription&lt;span style=&quot;background-color: initial;&quot;&gt;: String&lt;/span&gt;&lt;br&gt;&lt;/div&gt;&lt;div&gt;- servicesPhone: String&lt;/div&gt;" style="text;html=1;strokeColor=none;fillColor=none;align=left;verticalAlign=middle;spacingLeft=4;spacingRight=4;overflow=hidden;rotatable=0;points=[[0,0.5],[1,0.5]];portConstraint=eastwest;" parent="58" vertex="1">
          <mxGeometry y="75" width="310" height="45" as="geometry" />
        </mxCell>
        <mxCell id="63" value="" style="line;strokeWidth=1;fillColor=none;align=left;verticalAlign=middle;spacingTop=-1;spacingLeft=3;spacingRight=3;rotatable=0;labelPosition=right;points=[];portConstraint=eastwest;" parent="58" vertex="1">
          <mxGeometry y="120" width="310" height="8" as="geometry" />
        </mxCell>
        <mxCell id="64" value="operations" style="text;html=1;strokeColor=none;fillColor=none;align=center;verticalAlign=middle;spacingLeft=4;spacingRight=4;overflow=hidden;rotatable=0;points=[[0,0.5],[1,0.5]];portConstraint=eastwest;" parent="58" vertex="1">
          <mxGeometry y="128" width="310" height="20" as="geometry" />
        </mxCell>
        <mxCell id="65" value="&lt;div&gt;+ Inquirer(FIRST_NAME: String, LAST_NAME: String,&lt;/div&gt;&lt;div&gt;servicesPhone:String)&lt;/div&gt;&lt;div&gt;+ setServicesPhone(servicesPhone: String) void&lt;/div&gt;&lt;div&gt;+ getServicesPhone():String&lt;/div&gt;" style="text;html=1;strokeColor=none;fillColor=none;align=left;verticalAlign=middle;spacingLeft=4;spacingRight=4;overflow=hidden;rotatable=0;points=[[0,0.5],[1,0.5]];portConstraint=eastwest;" parent="58" vertex="1">
          <mxGeometry y="148" width="310" height="62" as="geometry" />
        </mxCell>
        <mxCell id="66" value="ReliefService" style="swimlane;fontStyle=0;align=center;verticalAlign=top;childLayout=stackLayout;horizontal=1;startSize=55;horizontalStack=0;resizeParent=1;resizeParentMax=0;resizeLast=0;collapsible=0;marginBottom=0;html=1;" parent="1" vertex="1">
          <mxGeometry x="5520" y="-4286" width="370" height="300" as="geometry" />
        </mxCell>
        <mxCell id="67" value="attributes" style="text;html=1;strokeColor=none;fillColor=none;align=center;verticalAlign=middle;spacingLeft=4;spacingRight=4;overflow=hidden;rotatable=0;points=[[0,0.5],[1,0.5]];portConstraint=eastwest;" parent="66" vertex="1">
          <mxGeometry y="55" width="370" height="20" as="geometry" />
        </mxCell>
        <mxCell id="68" value="&lt;div&gt;- inquirer: Inquirer&lt;/div&gt;&lt;div&gt;- inquiries: ArrayList&amp;lt;Inquiry&amp;gt;&lt;br&gt;&lt;/div&gt;" style="text;html=1;strokeColor=none;fillColor=none;align=left;verticalAlign=middle;spacingLeft=4;spacingRight=4;overflow=hidden;rotatable=0;points=[[0,0.5],[1,0.5]];portConstraint=eastwest;" parent="66" vertex="1">
          <mxGeometry y="75" width="370" height="55" as="geometry" />
        </mxCell>
        <mxCell id="69" value="" style="line;strokeWidth=1;fillColor=none;align=left;verticalAlign=middle;spacingTop=-1;spacingLeft=3;spacingRight=3;rotatable=0;labelPosition=right;points=[];portConstraint=eastwest;" parent="66" vertex="1">
          <mxGeometry y="130" width="370" height="8" as="geometry" />
        </mxCell>
        <mxCell id="70" value="operations" style="text;html=1;strokeColor=none;fillColor=none;align=center;verticalAlign=middle;spacingLeft=4;spacingRight=4;overflow=hidden;rotatable=0;points=[[0,0.5],[1,0.5]];portConstraint=eastwest;" parent="66" vertex="1">
          <mxGeometry y="138" width="370" height="20" as="geometry" />
        </mxCell>
        <mxCell id="71" value="&lt;div&gt;+ ReliefService(inquirer: Inquirer, inquiries: ArrayList&amp;lt;Inquiry&amp;gt;&lt;span style=&quot;background-color: initial;&quot;&gt;)&lt;/span&gt;&lt;/div&gt;&lt;div&gt;&lt;span style=&quot;background-color: initial;&quot;&gt;+ addInquiry(inquiry: Inquiry): void&lt;/span&gt;&lt;/div&gt;&lt;div&gt;&lt;span style=&quot;background-color: initial;&quot;&gt;+ removeInquiry(inquiry: Inquiry): void&lt;/span&gt;&lt;/div&gt;&lt;div&gt;&lt;span style=&quot;background-color: initial;&quot;&gt;+ setInquiries(inquiries: ArrayList&amp;lt;Inquiry&amp;gt;): void&lt;/span&gt;&lt;/div&gt;&lt;div&gt;&lt;span style=&quot;background-color: initial;&quot;&gt;+ getInquiries(): ArrayList&amp;lt;Inquiries&amp;gt;&lt;/span&gt;&lt;/div&gt;&lt;div&gt;&lt;span style=&quot;background-color: initial;&quot;&gt;+ getInquirer(): Inquirer&lt;/span&gt;&lt;/div&gt;" style="text;html=1;strokeColor=none;fillColor=none;align=left;verticalAlign=middle;spacingLeft=4;spacingRight=4;overflow=hidden;rotatable=0;points=[[0,0.5],[1,0.5]];portConstraint=eastwest;" parent="66" vertex="1">
          <mxGeometry y="158" width="370" height="142" as="geometry" />
        </mxCell>
        <mxCell id="biBuhSFXarAVXknmqJCp-290" style="edgeStyle=orthogonalEdgeStyle;rounded=1;html=1;dashed=1;endArrow=open;endFill=0;fillColor=#60a917;strokeColor=#000000;" parent="66" edge="1">
          <mxGeometry relative="1" as="geometry">
            <mxPoint x="710" y="299" as="sourcePoint" />
            <mxPoint x="730" y="56" as="targetPoint" />
            <Array as="points">
              <mxPoint x="730" y="299" />
            </Array>
          </mxGeometry>
        </mxCell>
        <mxCell id="biBuhSFXarAVXknmqJCp-291" value="&amp;lt;&amp;lt;throws&amp;gt;&amp;gt;" style="edgeLabel;html=1;align=center;verticalAlign=middle;resizable=0;points=[];" parent="biBuhSFXarAVXknmqJCp-290" vertex="1" connectable="0">
          <mxGeometry x="-0.2651" y="-2" relative="1" as="geometry">
            <mxPoint x="37" y="25" as="offset" />
          </mxGeometry>
        </mxCell>
        <mxCell id="73" value="FamilyRelationManager" style="swimlane;fontStyle=0;align=center;verticalAlign=top;childLayout=stackLayout;horizontal=1;startSize=55;horizontalStack=0;resizeParent=1;resizeParentMax=0;resizeLast=0;collapsible=0;marginBottom=0;html=1;" parent="1" vertex="1">
          <mxGeometry x="3700" y="-4286" width="440" height="280" as="geometry" />
        </mxCell>
        <mxCell id="74" value="attributes" style="text;html=1;strokeColor=none;fillColor=none;align=center;verticalAlign=middle;spacingLeft=4;spacingRight=4;overflow=hidden;rotatable=0;points=[[0,0.5],[1,0.5]];portConstraint=eastwest;" parent="73" vertex="1">
          <mxGeometry y="55" width="440" height="20" as="geometry" />
        </mxCell>
        <mxCell id="75" value="&lt;div&gt;- &lt;u&gt;relationshipRecord&lt;/u&gt;: Hashset&amp;lt;FamilyRelation&amp;gt;&lt;/div&gt;" style="text;html=1;strokeColor=none;fillColor=none;align=left;verticalAlign=middle;spacingLeft=4;spacingRight=4;overflow=hidden;rotatable=0;points=[[0,0.5],[1,0.5]];portConstraint=eastwest;" parent="73" vertex="1">
          <mxGeometry y="75" width="440" height="25" as="geometry" />
        </mxCell>
        <mxCell id="76" value="" style="line;strokeWidth=1;fillColor=none;align=left;verticalAlign=middle;spacingTop=-1;spacingLeft=3;spacingRight=3;rotatable=0;labelPosition=right;points=[];portConstraint=eastwest;" parent="73" vertex="1">
          <mxGeometry y="100" width="440" height="8" as="geometry" />
        </mxCell>
        <mxCell id="77" value="operations" style="text;html=1;strokeColor=none;fillColor=none;align=center;verticalAlign=middle;spacingLeft=4;spacingRight=4;overflow=hidden;rotatable=0;points=[[0,0.5],[1,0.5]];portConstraint=eastwest;" parent="73" vertex="1">
          <mxGeometry y="108" width="440" height="20" as="geometry" />
        </mxCell>
        <mxCell id="78" value="&lt;div style=&quot;font-size: 10px;&quot;&gt;&lt;span style=&quot;background-color: initial; font-size: 10px;&quot;&gt;- validateRelationship(): boolean&lt;/span&gt;&lt;/div&gt;&lt;div style=&quot;font-size: 10px;&quot;&gt;&lt;span style=&quot;background-color: initial; font-size: 10px;&quot;&gt;+ addRelationship(relationship: FamilyRelation): void&lt;/span&gt;&lt;/div&gt;&lt;div style=&quot;font-size: 10px;&quot;&gt;&lt;span style=&quot;background-color: initial; font-size: 10px;&quot;&gt;+ removeRelationship(relationship: FamilyRelation): void&lt;/span&gt;&lt;/div&gt;&lt;div style=&quot;font-size: 10px;&quot;&gt;&lt;div style=&quot;font-size: 10px;&quot;&gt;+ setPersonOne(relationship: FamilyRelation, personOne: DisasterVictim): void&lt;br style=&quot;font-size: 10px;&quot;&gt;&lt;/div&gt;&lt;div style=&quot;font-size: 10px;&quot;&gt;+ setPersonTwo(relationship: FamilyRelation, personTwo: DisasterVictim): void&lt;/div&gt;&lt;div style=&quot;font-size: 10px;&quot;&gt;+ setRelationshipTo(relationship: FamilyRelation, relationshipTo: String): void&lt;/div&gt;&lt;/div&gt;&lt;div style=&quot;font-size: 10px;&quot;&gt;&lt;span style=&quot;background-color: initial; font-size: 10px;&quot;&gt;+ getRelationships(person: DisasterVictim): HashSet&amp;lt;FamilyRelation&amp;gt;&lt;/span&gt;&lt;/div&gt;&lt;div style=&quot;font-size: 10px;&quot;&gt;+ getRelationshipTo(relationship: DisasterVictim): String&lt;/div&gt;&lt;div style=&quot;font-size: 10px;&quot;&gt;+ getPersonTwo(relationship: FamilyRelation): DisasterVictim&lt;/div&gt;&lt;div style=&quot;font-size: 10px;&quot;&gt;+ getPersonOne(relationship: FamilyRelation): DisasterVictim&lt;br style=&quot;font-size: 10px;&quot;&gt;&lt;/div&gt;&lt;div style=&quot;font-size: 10px;&quot;&gt;&lt;br style=&quot;font-size: 10px;&quot;&gt;&lt;/div&gt;" style="text;html=1;strokeColor=none;fillColor=none;align=left;verticalAlign=middle;spacingLeft=4;spacingRight=4;overflow=hidden;rotatable=0;points=[[0,0.5],[1,0.5]];portConstraint=eastwest;fontSize=10;" parent="73" vertex="1">
          <mxGeometry y="128" width="440" height="152" as="geometry" />
        </mxCell>
        <mxCell id="80" value="SupplyManager" style="swimlane;fontStyle=0;align=center;verticalAlign=top;childLayout=stackLayout;horizontal=1;startSize=55;horizontalStack=0;resizeParent=1;resizeParentMax=0;resizeLast=0;collapsible=0;marginBottom=0;html=1;" parent="1" vertex="1">
          <mxGeometry x="4910" y="-3020" width="300" height="200" as="geometry" />
        </mxCell>
        <mxCell id="81" value="attributes" style="text;html=1;strokeColor=none;fillColor=none;align=center;verticalAlign=middle;spacingLeft=4;spacingRight=4;overflow=hidden;rotatable=0;points=[[0,0.5],[1,0.5]];portConstraint=eastwest;" parent="80" vertex="1">
          <mxGeometry y="55" width="300" height="20" as="geometry" />
        </mxCell>
        <mxCell id="83" value="" style="line;strokeWidth=1;fillColor=none;align=left;verticalAlign=middle;spacingTop=-1;spacingLeft=3;spacingRight=3;rotatable=0;labelPosition=right;points=[];portConstraint=eastwest;" parent="80" vertex="1">
          <mxGeometry y="75" width="300" height="8" as="geometry" />
        </mxCell>
        <mxCell id="84" value="operations" style="text;html=1;strokeColor=none;fillColor=none;align=center;verticalAlign=middle;spacingLeft=4;spacingRight=4;overflow=hidden;rotatable=0;points=[[0,0.5],[1,0.5]];portConstraint=eastwest;" parent="80" vertex="1">
          <mxGeometry y="83" width="300" height="20" as="geometry" />
        </mxCell>
        <mxCell id="85" value="- checkSupplyAvailability(): boolean&lt;br&gt;+ transferSupplies(person: DisasterVictim,&amp;nbsp;&lt;br&gt;supply: HashSet&amp;lt;Supply&amp;gt;, location: Location) void&lt;br&gt;+ giveSupply(person: DisasterVictim, supply: Suppy, &lt;br&gt;location: Location, quantity: int) void" style="text;html=1;strokeColor=none;fillColor=none;align=left;verticalAlign=middle;spacingLeft=4;spacingRight=4;overflow=hidden;rotatable=0;points=[[0,0.5],[1,0.5]];portConstraint=eastwest;" parent="80" vertex="1">
          <mxGeometry y="103" width="300" height="97" as="geometry" />
        </mxCell>
        <mxCell id="188" style="edgeStyle=orthogonalEdgeStyle;rounded=1;html=1;dashed=1;startArrow=none;startFill=0;endArrow=classic;endFill=1;fillColor=#60a917;strokeColor=#000000;entryX=0.401;entryY=0.993;entryDx=0;entryDy=0;entryPerimeter=0;" parent="1" target="182" edge="1">
          <mxGeometry relative="1" as="geometry">
            <mxPoint x="4910" y="-4840" as="targetPoint" />
            <Array as="points">
              <mxPoint x="4720" y="-4061" />
            </Array>
            <mxPoint x="4720" y="-4061" as="sourcePoint" />
          </mxGeometry>
        </mxCell>
        <mxCell id="116" value="AccessDatabaseLogs" style="swimlane;fontStyle=0;align=center;verticalAlign=top;childLayout=stackLayout;horizontal=1;startSize=55;horizontalStack=0;resizeParent=1;resizeParentMax=0;resizeLast=0;collapsible=0;marginBottom=0;html=1;" parent="1" vertex="1">
          <mxGeometry x="4280" y="-4060" width="460" height="350" as="geometry" />
        </mxCell>
        <mxCell id="117" value="attributes" style="text;html=1;strokeColor=none;fillColor=none;align=center;verticalAlign=middle;spacingLeft=4;spacingRight=4;overflow=hidden;rotatable=0;points=[[0,0.5],[1,0.5]];portConstraint=eastwest;" parent="116" vertex="1">
          <mxGeometry y="55" width="460" height="20" as="geometry" />
        </mxCell>
        <mxCell id="5gc0bFKOEUMQOeYYkHy9-284" value="&lt;font style=&quot;font-size: 10px;&quot;&gt;+ &amp;lt;&amp;lt;final&amp;gt;&amp;gt; String JDBC_DRIVER&lt;br&gt;+ &amp;lt;&amp;lt;final&amp;gt;&amp;gt; String DBURL&lt;br&gt;+ &amp;lt;&amp;lt;final&amp;gt;&amp;gt; String USERNAME&lt;br&gt;+ &amp;lt;&amp;lt;final&amp;gt;&amp;gt; String PASSWORD&lt;br&gt;- Connection dbConnect&lt;/font&gt;" style="text;html=1;strokeColor=none;fillColor=none;align=left;verticalAlign=middle;spacingLeft=4;spacingRight=4;overflow=hidden;rotatable=0;points=[[0,0.5],[1,0.5]];portConstraint=eastwest;" vertex="1" parent="116">
          <mxGeometry y="75" width="460" height="65" as="geometry" />
        </mxCell>
        <mxCell id="119" value="" style="line;strokeWidth=1;fillColor=none;align=left;verticalAlign=middle;spacingTop=-1;spacingLeft=3;spacingRight=3;rotatable=0;labelPosition=right;points=[];portConstraint=eastwest;" parent="116" vertex="1">
          <mxGeometry y="140" width="460" height="8" as="geometry" />
        </mxCell>
        <mxCell id="120" value="operations" style="text;html=1;strokeColor=none;fillColor=none;align=center;verticalAlign=middle;spacingLeft=4;spacingRight=4;overflow=hidden;rotatable=0;points=[[0,0.5],[1,0.5]];portConstraint=eastwest;" parent="116" vertex="1">
          <mxGeometry y="148" width="460" height="20" as="geometry" />
        </mxCell>
        <mxCell id="121" value="+ mountFile(): void&lt;br style=&quot;font-size: 10px;&quot;&gt;+ dismountFile(): void&lt;br style=&quot;font-size: 10px;&quot;&gt;+ getAllInquiries(): ArrayList&amp;lt;String[]&amp;gt;&lt;br style=&quot;font-size: 10px;&quot;&gt;+ getAllInquiryLogs(): ArrayList&amp;lt;String[]&amp;gt;&lt;br style=&quot;font-size: 10px;&quot;&gt;+ addInquirer(String firstName, String lastName, String phoneNumber): void&lt;br style=&quot;font-size: 10px;&quot;&gt;+ addInquiryLog(String firstName, String lastName, String callDate, String details): void&lt;br style=&quot;font-size: 10px;&quot;&gt;+ removeInquirer(String firstName, String lastName, String phoneNumber): void&lt;br style=&quot;font-size: 10px;&quot;&gt;+ removeInquiryLog(String firstName, String lastName, String details): void&lt;br style=&quot;font-size: 10px;&quot;&gt;+ findInquirerId(String firstName, String lastName, boolean mountConnection): int&lt;br style=&quot;font-size: 10px;&quot;&gt;+ updateInquirer(int inquirerId, String firstName, String lastName, String phoneNumber): void&lt;br style=&quot;font-size: 10px;&quot;&gt;+ updateInquiryLog(int inquirerId, String callDate, String details): void&lt;br style=&quot;font-size: 10px;&quot;&gt;- readFile(): ArrayList&amp;lt;String&amp;gt;&lt;br style=&quot;font-size: 10px;&quot;&gt;- writeFile(): void&lt;div style=&quot;font-size: 10px;&quot;&gt;&lt;br style=&quot;font-size: 10px;&quot;&gt;&lt;/div&gt;" style="text;html=1;strokeColor=none;fillColor=none;align=left;verticalAlign=middle;spacingLeft=4;spacingRight=4;overflow=hidden;rotatable=0;points=[[0,0.5],[1,0.5]];portConstraint=eastwest;fontSize=10;" parent="116" vertex="1">
          <mxGeometry y="168" width="460" height="182" as="geometry" />
        </mxCell>
        <mxCell id="141" style="edgeStyle=orthogonalEdgeStyle;rounded=1;html=1;exitX=0.5;exitY=0;exitDx=0;exitDy=0;entryX=0.077;entryY=1.02;entryDx=0;entryDy=0;entryPerimeter=0;dashed=1;fillColor=#60a917;strokeColor=#000000;" parent="1" source="122" target="132" edge="1">
          <mxGeometry relative="1" as="geometry">
            <Array as="points">
              <mxPoint x="5235" y="-4710" />
              <mxPoint x="5780" y="-4710" />
              <mxPoint x="5780" y="-4560" />
              <mxPoint x="5839" y="-4560" />
            </Array>
          </mxGeometry>
        </mxCell>
        <mxCell id="163" style="edgeStyle=orthogonalEdgeStyle;rounded=1;html=1;entryX=0.505;entryY=0.968;entryDx=0;entryDy=0;entryPerimeter=0;dashed=1;fillColor=#60a917;strokeColor=#000000;exitX=0.484;exitY=0.995;exitDx=0;exitDy=0;exitPerimeter=0;" parent="1" source="129" target="166" edge="1">
          <mxGeometry relative="1" as="geometry">
            <Array as="points">
              <mxPoint x="5230" y="-4330" />
              <mxPoint x="4796" y="-4330" />
            </Array>
          </mxGeometry>
        </mxCell>
        <mxCell id="130" value="&amp;lt;&amp;lt;Interface&amp;gt;&amp;gt;&lt;br&gt;&lt;b&gt;&lt;i&gt;InfoManagement&lt;/i&gt;&lt;/b&gt;" style="swimlane;fontStyle=0;align=center;verticalAlign=top;childLayout=stackLayout;horizontal=1;startSize=55;horizontalStack=0;resizeParent=1;resizeParentMax=0;resizeLast=0;collapsible=0;marginBottom=0;html=1;fontSize=12;" parent="1" vertex="1">
          <mxGeometry x="5820" y="-4720" width="250" height="130" as="geometry" />
        </mxCell>
        <mxCell id="131" value="operations" style="text;html=1;strokeColor=none;fillColor=none;align=center;verticalAlign=middle;spacingLeft=4;spacingRight=4;overflow=hidden;rotatable=0;points=[[0,0.5],[1,0.5]];portConstraint=eastwest;fontSize=12;" parent="130" vertex="1">
          <mxGeometry y="55" width="250" height="20" as="geometry" />
        </mxCell>
        <mxCell id="132" value="+ setDescription(newValue: String) void&lt;br&gt;+ getDescription() String" style="text;html=1;strokeColor=none;fillColor=none;align=left;verticalAlign=middle;spacingLeft=4;spacingRight=4;overflow=hidden;rotatable=0;points=[[0,0.5],[1,0.5]];portConstraint=eastwest;fontSize=12;" parent="130" vertex="1">
          <mxGeometry y="75" width="250" height="55" as="geometry" />
        </mxCell>
        <mxCell id="133" value="IllegalArgumentException" style="swimlane;fontStyle=0;align=center;verticalAlign=top;childLayout=stackLayout;horizontal=1;startSize=55;horizontalStack=0;resizeParent=1;resizeParentMax=0;resizeLast=0;collapsible=0;marginBottom=0;html=1;" parent="1" vertex="1">
          <mxGeometry x="4350" y="-4500" width="200" height="100" as="geometry" />
        </mxCell>
        <mxCell id="136" value="" style="line;strokeWidth=1;fillColor=none;align=left;verticalAlign=middle;spacingTop=-1;spacingLeft=3;spacingRight=3;rotatable=0;labelPosition=right;points=[];portConstraint=eastwest;" parent="133" vertex="1">
          <mxGeometry y="55" width="200" height="45" as="geometry" />
        </mxCell>
        <mxCell id="150" value="&lt;i&gt;Person&lt;/i&gt;" style="swimlane;fontStyle=0;align=center;verticalAlign=top;childLayout=stackLayout;horizontal=1;startSize=55;horizontalStack=0;resizeParent=1;resizeParentMax=0;resizeLast=0;collapsible=0;marginBottom=0;html=1;" parent="1" vertex="1">
          <mxGeometry x="5050" y="-4260" width="370" height="340" as="geometry" />
        </mxCell>
        <mxCell id="151" value="attributes" style="text;html=1;strokeColor=none;fillColor=none;align=center;verticalAlign=middle;spacingLeft=4;spacingRight=4;overflow=hidden;rotatable=0;points=[[0,0.5],[1,0.5]];portConstraint=eastwest;" parent="150" vertex="1">
          <mxGeometry y="55" width="370" height="20" as="geometry" />
        </mxCell>
        <mxCell id="152" value="&lt;div&gt;- firstName: String&lt;/div&gt;&lt;div&gt;- lastName: String&lt;/div&gt;&lt;div&gt;- familyConnections: HashSet&amp;lt;FamilyRelation&amp;gt;&lt;br&gt;&lt;/div&gt;&lt;div&gt;- genderPronoun: String&lt;br&gt;&lt;/div&gt;&lt;div&gt;-&amp;nbsp;&lt;u&gt;genderOptions:&lt;/u&gt;&amp;nbsp;ArrayList&amp;lt;String&amp;gt;&lt;br&gt;&lt;/div&gt;" style="text;html=1;strokeColor=none;fillColor=none;align=left;verticalAlign=middle;spacingLeft=4;spacingRight=4;overflow=hidden;rotatable=0;points=[[0,0.5],[1,0.5]];portConstraint=eastwest;" parent="150" vertex="1">
          <mxGeometry y="75" width="370" height="85" as="geometry" />
        </mxCell>
        <mxCell id="153" value="" style="line;strokeWidth=1;fillColor=none;align=left;verticalAlign=middle;spacingTop=-1;spacingLeft=3;spacingRight=3;rotatable=0;labelPosition=right;points=[];portConstraint=eastwest;" parent="150" vertex="1">
          <mxGeometry y="160" width="370" height="8" as="geometry" />
        </mxCell>
        <mxCell id="154" value="operations" style="text;html=1;strokeColor=none;fillColor=none;align=center;verticalAlign=middle;spacingLeft=4;spacingRight=4;overflow=hidden;rotatable=0;points=[[0,0.5],[1,0.5]];portConstraint=eastwest;" parent="150" vertex="1">
          <mxGeometry y="168" width="370" height="20" as="geometry" />
        </mxCell>
        <mxCell id="155" value="&lt;div&gt;+ getFirstName(): String&lt;/div&gt;&lt;div&gt;+ getLastName(): String&lt;/div&gt;&lt;div&gt;+ getGender(): String&lt;br&gt;&lt;/div&gt;&lt;div&gt;+ setGender(gender: String): void&lt;/div&gt;&lt;div&gt;&lt;div&gt;+ setFirstName(firstName:String) void&lt;/div&gt;&lt;div&gt;+ setLastName(lastName: String): void&lt;/div&gt;&lt;/div&gt;&lt;div&gt;+ setFamilyConnections(relation: HashSet&amp;lt;FamilyRelation&amp;gt;):void&lt;br&gt;&lt;/div&gt;&lt;div&gt;&lt;div&gt;+ addFamilyConnection(familyConnection: FamilyRelation): void&lt;/div&gt;&lt;div&gt;+ removeFamilyConnection(familyConnection: FamilyRelation): void&lt;/div&gt;&lt;/div&gt;&lt;div&gt;+ getFamilyConnections(): HashSet&amp;lt;FamilyRelation&amp;gt;&lt;br&gt;&lt;/div&gt;" style="text;html=1;strokeColor=none;fillColor=none;align=left;verticalAlign=middle;spacingLeft=4;spacingRight=4;overflow=hidden;rotatable=0;points=[[0,0.5],[1,0.5]];portConstraint=eastwest;" parent="150" vertex="1">
          <mxGeometry y="188" width="370" height="152" as="geometry" />
        </mxCell>
        <mxCell id="159" value="&amp;lt;&amp;lt;Interface&amp;gt;&amp;gt;&lt;br&gt;&lt;b&gt;&lt;i&gt;DateManagement&lt;/i&gt;&lt;/b&gt;" style="swimlane;fontStyle=0;align=center;verticalAlign=top;childLayout=stackLayout;horizontal=1;startSize=55;horizontalStack=0;resizeParent=1;resizeParentMax=0;resizeLast=0;collapsible=0;marginBottom=0;html=1;fontSize=12;" parent="1" vertex="1">
          <mxGeometry x="4670" y="-4537.5" width="250" height="155" as="geometry" />
        </mxCell>
        <mxCell id="160" value="operations" style="text;html=1;strokeColor=none;fillColor=none;align=center;verticalAlign=middle;spacingLeft=4;spacingRight=4;overflow=hidden;rotatable=0;points=[[0,0.5],[1,0.5]];portConstraint=eastwest;fontSize=12;" parent="159" vertex="1">
          <mxGeometry y="55" width="250" height="20" as="geometry" />
        </mxCell>
        <mxCell id="170" value="+ validateDate() boolean" style="text;html=1;strokeColor=none;fillColor=none;align=left;verticalAlign=middle;spacingLeft=4;spacingRight=4;overflow=hidden;rotatable=0;points=[[0,0.5],[1,0.5]];portConstraint=eastwest;fontSize=12;" parent="159" vertex="1">
          <mxGeometry y="75" width="250" height="25" as="geometry" />
        </mxCell>
        <mxCell id="161" value="+ setDate(newDate: String) void" style="text;html=1;strokeColor=none;fillColor=none;align=left;verticalAlign=middle;spacingLeft=4;spacingRight=4;overflow=hidden;rotatable=0;points=[[0,0.5],[1,0.5]];portConstraint=eastwest;fontSize=12;" parent="159" vertex="1">
          <mxGeometry y="100" width="250" height="25" as="geometry" />
        </mxCell>
        <mxCell id="166" value="+ getDate() String" style="text;html=1;strokeColor=none;fillColor=none;align=left;verticalAlign=middle;spacingLeft=4;spacingRight=4;overflow=hidden;rotatable=0;points=[[0,0.5],[1,0.5]];portConstraint=eastwest;fontSize=12;" parent="159" vertex="1">
          <mxGeometry y="125" width="250" height="30" as="geometry" />
        </mxCell>
        <mxCell id="167" style="edgeStyle=orthogonalEdgeStyle;rounded=1;html=1;dashed=1;endArrow=open;endFill=0;exitX=0;exitY=0.5;exitDx=0;exitDy=0;entryX=1;entryY=0.5;entryDx=0;entryDy=0;fillColor=#60a917;strokeColor=#000000;" parent="1" source="170" target="133" edge="1">
          <mxGeometry relative="1" as="geometry">
            <mxPoint x="5380" y="-3150" as="sourcePoint" />
            <mxPoint x="4700" y="-4960" as="targetPoint" />
            <Array as="points">
              <mxPoint x="4570" y="-4450" />
              <mxPoint x="4570" y="-4450" />
            </Array>
          </mxGeometry>
        </mxCell>
        <mxCell id="168" value="&amp;lt;&amp;lt;throws&amp;gt;&amp;gt;" style="edgeLabel;html=1;align=center;verticalAlign=middle;resizable=0;points=[];" parent="167" vertex="1" connectable="0">
          <mxGeometry x="-0.2651" y="-2" relative="1" as="geometry">
            <mxPoint x="-16" y="-8" as="offset" />
          </mxGeometry>
        </mxCell>
        <mxCell id="175" style="edgeStyle=orthogonalEdgeStyle;rounded=1;html=1;dashed=1;endArrow=open;endFill=0;exitX=-0.007;exitY=0.128;exitDx=0;exitDy=0;exitPerimeter=0;fillColor=#60a917;strokeColor=#000000;" parent="1" source="78" edge="1">
          <mxGeometry relative="1" as="geometry">
            <mxPoint x="4519.4" y="-3225.466" as="sourcePoint" />
            <mxPoint x="3530" y="-4140" as="targetPoint" />
            <Array as="points">
              <mxPoint x="3630" y="-4138" />
              <mxPoint x="3630" y="-4140" />
              <mxPoint x="3550" y="-4140" />
            </Array>
          </mxGeometry>
        </mxCell>
        <mxCell id="176" value="&amp;lt;&amp;lt;throws&amp;gt;&amp;gt;" style="edgeLabel;html=1;align=center;verticalAlign=middle;resizable=0;points=[];" parent="175" vertex="1" connectable="0">
          <mxGeometry x="-0.2651" y="-2" relative="1" as="geometry">
            <mxPoint x="-5" y="-9" as="offset" />
          </mxGeometry>
        </mxCell>
        <mxCell id="177" style="edgeStyle=orthogonalEdgeStyle;rounded=1;html=1;endArrow=circlePlus;endFill=0;startArrow=none;startFill=0;exitX=1;exitY=0.5;exitDx=0;exitDy=0;entryX=0;entryY=-0.094;entryDx=0;entryDy=0;entryPerimeter=0;" parent="1" source="165" target="56" edge="1">
          <mxGeometry relative="1" as="geometry">
            <mxPoint x="4710" y="-3835" as="sourcePoint" />
            <mxPoint x="4770" y="-3980" as="targetPoint" />
            <Array as="points">
              <mxPoint x="4230" y="-3280" />
              <mxPoint x="4350" y="-3280" />
              <mxPoint x="4350" y="-3344" />
            </Array>
          </mxGeometry>
        </mxCell>
        <mxCell id="183" value="&amp;lt;&amp;lt;Interface&amp;gt;&amp;gt;&lt;br&gt;&lt;i&gt;&lt;b&gt;ExteralFileIO&lt;/b&gt;&lt;/i&gt;" style="swimlane;fontStyle=0;align=center;verticalAlign=top;childLayout=stackLayout;horizontal=1;startSize=55;horizontalStack=0;resizeParent=1;resizeParentMax=0;resizeLast=0;collapsible=0;marginBottom=0;html=1;fontSize=12;" parent="1" vertex="1">
          <mxGeometry x="4620" y="-4270" width="250" height="142" as="geometry" />
        </mxCell>
        <mxCell id="184" value="operations" style="text;html=1;strokeColor=none;fillColor=none;align=center;verticalAlign=middle;spacingLeft=4;spacingRight=4;overflow=hidden;rotatable=0;points=[[0,0.5],[1,0.5]];portConstraint=eastwest;fontSize=12;" parent="183" vertex="1">
          <mxGeometry y="55" width="250" height="20" as="geometry" />
        </mxCell>
        <mxCell id="182" value="&lt;div&gt;+ readFile(): void&lt;/div&gt;&lt;div&gt;+ writeFile(): void&lt;/div&gt;&lt;div&gt;+ mountFile(): void&lt;/div&gt;&lt;div&gt;+ dismountFIle(): void&lt;/div&gt;" style="text;html=1;strokeColor=none;fillColor=none;align=left;verticalAlign=middle;spacingLeft=4;spacingRight=4;overflow=hidden;rotatable=0;points=[[0,0.5],[1,0.5]];portConstraint=eastwest;" parent="183" vertex="1">
          <mxGeometry y="75" width="250" height="67" as="geometry" />
        </mxCell>
        <mxCell id="195" style="edgeStyle=orthogonalEdgeStyle;rounded=1;html=1;exitX=0;exitY=0;exitDx=0;exitDy=0;dashed=1;startArrow=none;startFill=0;endArrow=classic;endFill=1;exitPerimeter=0;fillColor=#60a917;strokeColor=#000000;entryX=1;entryY=0.5;entryDx=0;entryDy=0;jumpStyle=none;" parent="1" source="153" target="184" edge="1">
          <mxGeometry relative="1" as="geometry">
            <mxPoint x="3920" y="-3687" as="sourcePoint" />
            <mxPoint x="4940" y="-4820" as="targetPoint" />
            <Array as="points">
              <mxPoint x="5050" y="-4105" />
              <mxPoint x="5040" y="-4105" />
              <mxPoint x="5040" y="-4205" />
            </Array>
          </mxGeometry>
        </mxCell>
        <mxCell id="196" style="edgeStyle=orthogonalEdgeStyle;rounded=1;html=1;exitX=0;exitY=0.5;exitDx=0;exitDy=0;entryX=0.805;entryY=0.02;entryDx=0;entryDy=0;dashed=1;startArrow=none;startFill=0;endArrow=open;endFill=0;fillColor=#60a917;strokeColor=#000000;entryPerimeter=0;" parent="1" source="155" target="213" edge="1">
          <mxGeometry relative="1" as="geometry">
            <Array as="points">
              <mxPoint x="4921" y="-3996" />
            </Array>
          </mxGeometry>
        </mxCell>
        <mxCell id="197" value="UserInterface" style="swimlane;fontStyle=0;align=center;verticalAlign=top;childLayout=stackLayout;horizontal=1;startSize=55;horizontalStack=0;resizeParent=1;resizeParentMax=0;resizeLast=0;collapsible=0;marginBottom=0;html=1;" parent="1" vertex="1">
          <mxGeometry x="3780" y="-3966" width="370" height="320" as="geometry" />
        </mxCell>
        <mxCell id="198" value="attributes" style="text;html=1;strokeColor=none;fillColor=none;align=center;verticalAlign=middle;spacingLeft=4;spacingRight=4;overflow=hidden;rotatable=0;points=[[0,0.5],[1,0.5]];portConstraint=eastwest;" parent="197" vertex="1">
          <mxGeometry y="55" width="370" height="20" as="geometry" />
        </mxCell>
        <mxCell id="199" value="- privlegeLevel: int&lt;br&gt;- searchInput: String&lt;br&gt;- menuPage: MenuPages" style="text;html=1;strokeColor=none;fillColor=none;align=left;verticalAlign=middle;spacingLeft=4;spacingRight=4;overflow=hidden;rotatable=0;points=[[0,0.5],[1,0.5]];portConstraint=eastwest;" parent="197" vertex="1">
          <mxGeometry y="75" width="370" height="55" as="geometry" />
        </mxCell>
        <mxCell id="200" value="" style="line;strokeWidth=1;fillColor=none;align=left;verticalAlign=middle;spacingTop=-1;spacingLeft=3;spacingRight=3;rotatable=0;labelPosition=right;points=[];portConstraint=eastwest;" parent="197" vertex="1">
          <mxGeometry y="130" width="370" height="8" as="geometry" />
        </mxCell>
        <mxCell id="201" value="operations" style="text;html=1;strokeColor=none;fillColor=none;align=center;verticalAlign=middle;spacingLeft=4;spacingRight=4;overflow=hidden;rotatable=0;points=[[0,0.5],[1,0.5]];portConstraint=eastwest;" parent="197" vertex="1">
          <mxGeometry y="138" width="370" height="20" as="geometry" />
        </mxCell>
        <mxCell id="202" value="&lt;div&gt;+ displayMenu(): void&lt;/div&gt;&lt;div&gt;- searchLogs(): void&lt;/div&gt;&lt;div&gt;- searchVictims(searchInput: String): void&lt;/div&gt;&lt;div&gt;- homeMenu(): void&lt;/div&gt;&lt;div&gt;- locationMenu(): void&lt;/div&gt;&lt;div&gt;- victimMenu(): void&lt;/div&gt;&lt;div&gt;- victimInfoMenu(): void&lt;/div&gt;&lt;div&gt;- medicalRecordMenu(): void&lt;/div&gt;&lt;div&gt;- inquiryMenu: void&lt;/div&gt;&lt;div&gt;- searchInquries(searchInput: String): void&lt;/div&gt;" style="text;html=1;strokeColor=none;fillColor=none;align=left;verticalAlign=middle;spacingLeft=4;spacingRight=4;overflow=hidden;rotatable=0;points=[[0,0.5],[1,0.5]];portConstraint=eastwest;" parent="197" vertex="1">
          <mxGeometry y="158" width="370" height="162" as="geometry" />
        </mxCell>
        <mxCell id="203" value="&amp;lt;&amp;lt;enumeration&amp;gt;&amp;gt;&lt;br&gt;&lt;b&gt;&amp;nbsp;MenuPages&lt;/b&gt;" style="swimlane;fontStyle=0;align=center;verticalAlign=top;childLayout=stackLayout;horizontal=1;startSize=40;horizontalStack=0;resizeParent=1;resizeParentMax=0;resizeLast=0;collapsible=0;marginBottom=0;html=1;" parent="1" vertex="1">
          <mxGeometry x="3580" y="-3920" width="140" height="190" as="geometry" />
        </mxCell>
        <mxCell id="204" value="Home&lt;br&gt;Location_Menu&lt;br&gt;Victim_Menu&lt;br&gt;Search_Victims&lt;br&gt;List_VictimInfo&lt;br&gt;Medical_Records&lt;br&gt;Inquiries_Menu&lt;br&gt;Search_Inquiries&lt;br&gt;" style="text;html=1;strokeColor=none;fillColor=none;align=left;verticalAlign=middle;spacingLeft=4;spacingRight=4;overflow=hidden;rotatable=0;points=[[0,0.5],[1,0.5]];portConstraint=eastwest;" parent="203" vertex="1">
          <mxGeometry y="40" width="140" height="150" as="geometry" />
        </mxCell>
        <mxCell id="205" style="edgeStyle=orthogonalEdgeStyle;rounded=1;html=1;exitX=1;exitY=0.5;exitDx=0;exitDy=0;startArrow=none;startFill=0;endArrow=circlePlus;endFill=0;" parent="1" source="204" target="197" edge="1">
          <mxGeometry relative="1" as="geometry" />
        </mxCell>
        <mxCell id="169" value="" style="edgeStyle=orthogonalEdgeStyle;orthogonalLoop=1;jettySize=auto;html=1;rounded=1;dashed=1;endArrow=classic;endFill=1;exitX=0.25;exitY=0;exitDx=0;exitDy=0;entryX=0.237;entryY=1.024;entryDx=0;entryDy=0;entryPerimeter=0;fillColor=#60a917;strokeColor=#000000;" parent="1" source="50" target="166" edge="1">
          <mxGeometry width="80" relative="1" as="geometry">
            <mxPoint x="5110" y="-2841" as="sourcePoint" />
            <mxPoint x="5190" y="-2841" as="targetPoint" />
            <Array as="points">
              <mxPoint x="4482" y="-3610" />
              <mxPoint x="3280" y="-3610" />
              <mxPoint x="3280" y="-4330" />
              <mxPoint x="4729" y="-4330" />
            </Array>
          </mxGeometry>
        </mxCell>
        <mxCell id="122" value="Inquiry" style="swimlane;fontStyle=0;align=center;verticalAlign=top;childLayout=stackLayout;horizontal=1;startSize=55;horizontalStack=0;resizeParent=1;resizeParentMax=0;resizeLast=0;collapsible=0;marginBottom=0;html=1;" parent="1" vertex="1">
          <mxGeometry x="5080" y="-4690" width="310" height="330" as="geometry" />
        </mxCell>
        <mxCell id="123" value="attributes" style="text;html=1;strokeColor=none;fillColor=none;align=center;verticalAlign=middle;spacingLeft=4;spacingRight=4;overflow=hidden;rotatable=0;points=[[0,0.5],[1,0.5]];portConstraint=eastwest;" parent="122" vertex="1">
          <mxGeometry y="55" width="310" height="20" as="geometry" />
        </mxCell>
        <mxCell id="128" value="&lt;div&gt;&lt;span style=&quot;background-color: initial;&quot;&gt;- missingPerson: DisasterVictim&lt;/span&gt;&lt;br&gt;&lt;/div&gt;&lt;div&gt;- dateOfInquiry: String&lt;/div&gt;&lt;div&gt;- description: String&lt;/div&gt;&lt;div&gt;- lastKnownLocation: Location&lt;/div&gt;" style="text;html=1;strokeColor=none;fillColor=none;align=left;verticalAlign=middle;spacingLeft=4;spacingRight=4;overflow=hidden;rotatable=0;points=[[0,0.5],[1,0.5]];portConstraint=eastwest;" parent="122" vertex="1">
          <mxGeometry y="75" width="310" height="85" as="geometry" />
        </mxCell>
        <mxCell id="125" value="" style="line;strokeWidth=1;fillColor=none;align=left;verticalAlign=middle;spacingTop=-1;spacingLeft=3;spacingRight=3;rotatable=0;labelPosition=right;points=[];portConstraint=eastwest;" parent="122" vertex="1">
          <mxGeometry y="160" width="310" height="8" as="geometry" />
        </mxCell>
        <mxCell id="126" value="operations" style="text;html=1;strokeColor=none;fillColor=none;align=center;verticalAlign=middle;spacingLeft=4;spacingRight=4;overflow=hidden;rotatable=0;points=[[0,0.5],[1,0.5]];portConstraint=eastwest;" parent="122" vertex="1">
          <mxGeometry y="168" width="310" height="20" as="geometry" />
        </mxCell>
        <mxCell id="129" value="&lt;div&gt;+ Inquiry(missingPerson: DisasterVictim,&amp;nbsp;&lt;/div&gt;&lt;div&gt;&lt;span style=&quot;background-color: initial;&quot;&gt;dateOfInquiry:String, d&lt;/span&gt;escription&lt;span style=&quot;background-color: initial;&quot;&gt;: String ,&amp;nbsp;&lt;/span&gt;&lt;/div&gt;&lt;div&gt;&lt;span style=&quot;background-color: initial;&quot;&gt;lastKnownLocation: Location)&lt;/span&gt;&lt;/div&gt;&lt;div&gt;+ getMissingPerson(): DisasterVictim&lt;/div&gt;&lt;div&gt;+ setMissingPerson(missingPerson: DisasterVictim)&lt;/div&gt;&lt;div&gt;+ getLastKnownLocation(): Location&lt;/div&gt;&lt;div&gt;+ setLastKnownLocation(lastKnownLocation: Location)&lt;/div&gt;" style="text;html=1;strokeColor=none;fillColor=none;align=left;verticalAlign=middle;spacingLeft=4;spacingRight=4;overflow=hidden;rotatable=0;points=[[0,0.5],[1,0.5]];portConstraint=eastwest;" parent="122" vertex="1">
          <mxGeometry y="188" width="310" height="142" as="geometry" />
        </mxCell>
        <mxCell id="213" value="IllegalArgumentException" style="swimlane;fontStyle=0;align=center;verticalAlign=top;childLayout=stackLayout;horizontal=1;startSize=55;horizontalStack=0;resizeParent=1;resizeParentMax=0;resizeLast=0;collapsible=0;marginBottom=0;html=1;" parent="1" vertex="1">
          <mxGeometry x="4760" y="-3980" width="200" height="100" as="geometry" />
        </mxCell>
        <mxCell id="214" value="" style="line;strokeWidth=1;fillColor=none;align=left;verticalAlign=middle;spacingTop=-1;spacingLeft=3;spacingRight=3;rotatable=0;labelPosition=right;points=[];portConstraint=eastwest;" parent="213" vertex="1">
          <mxGeometry y="55" width="200" height="45" as="geometry" />
        </mxCell>
        <mxCell id="216" style="edgeStyle=orthogonalEdgeStyle;rounded=1;jumpStyle=none;html=1;exitX=0;exitY=0.5;exitDx=0;exitDy=0;startArrow=none;startFill=0;endArrow=diamond;endFill=1;endSize=14;" parent="1" source="28" target="75" edge="1">
          <mxGeometry relative="1" as="geometry" />
        </mxCell>
        <mxCell id="217" style="edgeStyle=orthogonalEdgeStyle;rounded=1;jumpStyle=none;html=1;exitX=0;exitY=0.5;exitDx=0;exitDy=0;entryX=1;entryY=0.5;entryDx=0;entryDy=0;startArrow=none;startFill=0;endArrow=diamond;endFill=0;endSize=14;" parent="1" source="49" target="52" edge="1">
          <mxGeometry relative="1" as="geometry">
            <Array as="points">
              <mxPoint x="5920" y="-3970" />
              <mxPoint x="5820" y="-3970" />
              <mxPoint x="5820" y="-3412" />
            </Array>
          </mxGeometry>
        </mxCell>
        <mxCell id="223" style="edgeStyle=orthogonalEdgeStyle;rounded=1;jumpStyle=none;html=1;startArrow=none;startFill=0;endArrow=diamond;endFill=0;endSize=14;entryX=0;entryY=0.259;entryDx=0;entryDy=0;entryPerimeter=0;" parent="1" target="9" edge="1">
          <mxGeometry relative="1" as="geometry">
            <Array as="points">
              <mxPoint x="4792" y="-3370" />
              <mxPoint x="5860" y="-3370" />
              <mxPoint x="5860" y="-3631" />
            </Array>
            <mxPoint x="4790" y="-3370" as="sourcePoint" />
          </mxGeometry>
        </mxCell>
        <mxCell id="225" style="edgeStyle=orthogonalEdgeStyle;rounded=1;jumpStyle=none;html=1;exitX=0;exitY=0.5;exitDx=0;exitDy=0;startArrow=none;startFill=0;endArrow=diamond;endFill=0;endSize=14;entryX=1;entryY=0.5;entryDx=0;entryDy=0;" parent="1" source="41" target="85" edge="1">
          <mxGeometry relative="1" as="geometry">
            <mxPoint x="5210" y="-2802" as="targetPoint" />
            <Array as="points">
              <mxPoint x="5330" y="-3040" />
              <mxPoint x="5330" y="-2868" />
            </Array>
          </mxGeometry>
        </mxCell>
        <mxCell id="226" style="edgeStyle=orthogonalEdgeStyle;rounded=1;jumpStyle=none;html=1;exitX=1;exitY=0.5;exitDx=0;exitDy=0;entryX=0.246;entryY=0.998;entryDx=0;entryDy=0;entryPerimeter=0;startArrow=diamond;startFill=0;endArrow=none;endFill=0;endSize=20;startSize=20;" parent="1" source="60" target="71" edge="1">
          <mxGeometry relative="1" as="geometry" />
        </mxCell>
        <mxCell id="228" style="edgeStyle=orthogonalEdgeStyle;rounded=1;jumpStyle=none;html=1;exitX=1;exitY=0.5;exitDx=0;exitDy=0;entryX=0.5;entryY=0;entryDx=0;entryDy=0;startArrow=none;startFill=0;endArrow=diamond;endFill=0;endSize=14;" parent="1" source="128" target="66" edge="1">
          <mxGeometry relative="1" as="geometry" />
        </mxCell>
        <mxCell id="235" style="edgeStyle=orthogonalEdgeStyle;rounded=1;jumpStyle=none;html=1;exitX=0;exitY=0.5;exitDx=0;exitDy=0;entryX=0.5;entryY=0;entryDx=0;entryDy=0;startArrow=none;startFill=0;endArrow=classic;endFill=1;endSize=14;dashed=1;" parent="1" source="9" target="80" edge="1">
          <mxGeometry relative="1" as="geometry">
            <Array as="points">
              <mxPoint x="5890" y="-3439" />
              <mxPoint x="5890" y="-3310" />
              <mxPoint x="5060" y="-3310" />
            </Array>
          </mxGeometry>
        </mxCell>
        <mxCell id="236" value="&amp;lt;&amp;lt;use&amp;gt;&amp;gt;" style="edgeLabel;html=1;align=center;verticalAlign=middle;resizable=0;points=[];" parent="235" vertex="1" connectable="0">
          <mxGeometry x="0.044" y="-1" relative="1" as="geometry">
            <mxPoint y="11" as="offset" />
          </mxGeometry>
        </mxCell>
        <mxCell id="237" value="IllegalArgumentException" style="swimlane;fontStyle=0;align=center;verticalAlign=top;childLayout=stackLayout;horizontal=1;startSize=55;horizontalStack=0;resizeParent=1;resizeParentMax=0;resizeLast=0;collapsible=0;marginBottom=0;html=1;" parent="1" vertex="1">
          <mxGeometry x="4570" y="-2910" width="200" height="100" as="geometry" />
        </mxCell>
        <mxCell id="238" value="" style="line;strokeWidth=1;fillColor=none;align=left;verticalAlign=middle;spacingTop=-1;spacingLeft=3;spacingRight=3;rotatable=0;labelPosition=right;points=[];portConstraint=eastwest;" parent="237" vertex="1">
          <mxGeometry y="55" width="200" height="45" as="geometry" />
        </mxCell>
        <mxCell id="239" style="edgeStyle=orthogonalEdgeStyle;rounded=1;html=1;entryX=1;entryY=0.5;entryDx=0;entryDy=0;dashed=1;endArrow=open;endFill=0;exitX=0;exitY=0.5;exitDx=0;exitDy=0;fillColor=#60a917;strokeColor=#000000;" parent="1" source="85" target="237" edge="1">
          <mxGeometry relative="1" as="geometry">
            <mxPoint x="4380" y="-2859.9340000000007" as="sourcePoint" />
            <mxPoint x="4907.8" y="-2517.149999999999" as="targetPoint" />
            <Array as="points">
              <mxPoint x="4910" y="-2860" />
            </Array>
          </mxGeometry>
        </mxCell>
        <mxCell id="240" value="&amp;lt;&amp;lt;throws&amp;gt;&amp;gt;" style="edgeLabel;html=1;align=center;verticalAlign=middle;resizable=0;points=[];" parent="239" vertex="1" connectable="0">
          <mxGeometry x="-0.2651" y="-2" relative="1" as="geometry">
            <mxPoint x="-13" y="12" as="offset" />
          </mxGeometry>
        </mxCell>
        <mxCell id="243" style="edgeStyle=orthogonalEdgeStyle;html=1;exitX=1.007;exitY=0.849;exitDx=0;exitDy=0;entryX=0.334;entryY=-0.002;entryDx=0;entryDy=0;entryPerimeter=0;dashed=1;exitPerimeter=0;" parent="1" source="202" target="50" edge="1">
          <mxGeometry relative="1" as="geometry" />
        </mxCell>
        <mxCell id="244" style="edgeStyle=orthogonalEdgeStyle;html=1;exitX=1;exitY=0.5;exitDx=0;exitDy=0;jumpStyle=arc;dashed=1;" parent="1" source="199" target="121" edge="1">
          <mxGeometry relative="1" as="geometry" />
        </mxCell>
        <mxCell id="245" style="edgeStyle=orthogonalEdgeStyle;jumpStyle=arc;html=1;exitX=0;exitY=0.5;exitDx=0;exitDy=0;entryX=1.006;entryY=0.737;entryDx=0;entryDy=0;entryPerimeter=0;dashed=1;" parent="1" source="120" target="78" edge="1">
          <mxGeometry relative="1" as="geometry" />
        </mxCell>
        <mxCell id="247" style="edgeStyle=orthogonalEdgeStyle;rounded=1;jumpStyle=arc;html=1;exitX=0;exitY=0.5;exitDx=0;exitDy=0;startArrow=none;startFill=0;endArrow=classic;endFill=1;endSize=14;entryX=0.002;entryY=0.645;entryDx=0;entryDy=0;dashed=1;entryPerimeter=0;" parent="1" source="52" target="78" edge="1">
          <mxGeometry relative="1" as="geometry">
            <mxPoint x="3900" y="-3490" as="sourcePoint" />
            <mxPoint x="3470" y="-4170" as="targetPoint" />
            <Array as="points">
              <mxPoint x="3520" y="-3413" />
              <mxPoint x="3520" y="-4060" />
            </Array>
          </mxGeometry>
        </mxCell>
        <mxCell id="248" value="&amp;lt;&amp;lt;use&amp;gt;&amp;gt;" style="edgeLabel;html=1;align=center;verticalAlign=middle;resizable=0;points=[];" parent="247" connectable="0" vertex="1">
          <mxGeometry x="-0.146" relative="1" as="geometry">
            <mxPoint x="270" y="-13" as="offset" />
          </mxGeometry>
        </mxCell>
        <mxCell id="249" style="edgeStyle=orthogonalEdgeStyle;jumpStyle=arc;html=1;exitX=0.631;exitY=1.007;exitDx=0;exitDy=0;exitPerimeter=0;dashed=1;" parent="1" source="71" edge="1">
          <mxGeometry relative="1" as="geometry">
            <mxPoint x="4638" y="-3710" as="targetPoint" />
            <Array as="points">
              <mxPoint x="5754" y="-3570" />
              <mxPoint x="4638" y="-3570" />
            </Array>
          </mxGeometry>
        </mxCell>
        <mxCell id="274" value="&amp;lt;use&amp;gt;&amp;gt;" style="edgeLabel;html=1;align=center;verticalAlign=middle;resizable=0;points=[];" parent="249" vertex="1" connectable="0">
          <mxGeometry x="-0.1975" y="4" relative="1" as="geometry">
            <mxPoint y="6" as="offset" />
          </mxGeometry>
        </mxCell>
        <mxCell id="250" style="edgeStyle=orthogonalEdgeStyle;jumpStyle=arc;html=1;exitX=0.727;exitY=1.002;exitDx=0;exitDy=0;entryX=1.005;entryY=0.2;entryDx=0;entryDy=0;entryPerimeter=0;exitPerimeter=0;" parent="1" source="71" target="52" edge="1">
          <mxGeometry relative="1" as="geometry">
            <Array as="points">
              <mxPoint x="5790" y="-3986" />
              <mxPoint x="5790" y="-3450" />
            </Array>
          </mxGeometry>
        </mxCell>
        <mxCell id="251" value="IllegalArgumentException" style="swimlane;fontStyle=0;align=center;verticalAlign=top;childLayout=stackLayout;horizontal=1;startSize=55;horizontalStack=0;resizeParent=1;resizeParentMax=0;resizeLast=0;collapsible=0;marginBottom=0;html=1;" parent="1" vertex="1">
          <mxGeometry x="3330" y="-4196" width="200" height="100" as="geometry" />
        </mxCell>
        <mxCell id="252" value="" style="line;strokeWidth=1;fillColor=none;align=left;verticalAlign=middle;spacingTop=-1;spacingLeft=3;spacingRight=3;rotatable=0;labelPosition=right;points=[];portConstraint=eastwest;" parent="251" vertex="1">
          <mxGeometry y="55" width="200" height="45" as="geometry" />
        </mxCell>
        <mxCell id="253" value="&amp;lt;&amp;lt;use&amp;gt;&amp;gt;" style="text;html=1;align=center;verticalAlign=middle;resizable=0;points=[];autosize=1;strokeColor=none;fillColor=none;" parent="1" vertex="1">
          <mxGeometry x="4200" y="-4040" width="70" height="30" as="geometry" />
        </mxCell>
        <mxCell id="255" value="&amp;lt;&amp;lt;use&amp;gt;&amp;gt;" style="text;html=1;strokeColor=none;fillColor=none;align=center;verticalAlign=middle;whiteSpace=wrap;rounded=0;" parent="1" vertex="1">
          <mxGeometry x="4350" y="-3751" width="60" height="30" as="geometry" />
        </mxCell>
        <mxCell id="256" value="&amp;lt;&amp;lt;use&amp;gt;&amp;gt;" style="text;html=1;strokeColor=none;fillColor=none;align=center;verticalAlign=middle;whiteSpace=wrap;rounded=0;" parent="1" vertex="1">
          <mxGeometry x="4210" y="-3890" width="60" height="30" as="geometry" />
        </mxCell>
        <mxCell id="257" value="1" style="text;html=1;strokeColor=none;fillColor=none;align=center;verticalAlign=middle;whiteSpace=wrap;rounded=0;" parent="1" vertex="1">
          <mxGeometry x="5220" y="-2900" width="20" height="30" as="geometry" />
        </mxCell>
        <mxCell id="258" value="0..*" style="text;html=1;strokeColor=none;fillColor=none;align=center;verticalAlign=middle;whiteSpace=wrap;rounded=0;" parent="1" vertex="1">
          <mxGeometry x="5480" y="-3070" width="20" height="30" as="geometry" />
        </mxCell>
        <mxCell id="261" value="" style="edgeStyle=orthogonalEdgeStyle;html=1;exitX=0.283;exitY=0.998;exitDx=0;exitDy=0;entryX=0.368;entryY=1.016;entryDx=0;entryDy=0;strokeColor=#000000;startArrow=diamond;startFill=1;endArrow=none;endFill=0;endSize=20;exitPerimeter=0;entryPerimeter=0;startSize=20;" parent="1" source="57" target="41" edge="1">
          <mxGeometry x="-0.0307" y="-170" relative="1" as="geometry">
            <Array as="points">
              <mxPoint x="4496" y="-2780" />
              <mxPoint x="5595" y="-2780" />
            </Array>
            <mxPoint as="offset" />
          </mxGeometry>
        </mxCell>
        <mxCell id="262" value="1" style="text;html=1;strokeColor=none;fillColor=none;align=center;verticalAlign=middle;whiteSpace=wrap;rounded=0;" parent="1" vertex="1">
          <mxGeometry x="4510" y="-3040" width="20" height="30" as="geometry" />
        </mxCell>
        <mxCell id="263" value="0..*" style="text;html=1;strokeColor=none;fillColor=none;align=center;verticalAlign=middle;whiteSpace=wrap;rounded=0;" parent="1" vertex="1">
          <mxGeometry x="5600" y="-3000" width="20" height="30" as="geometry" />
        </mxCell>
        <mxCell id="266" value="0..*" style="text;html=1;strokeColor=none;fillColor=none;align=center;verticalAlign=middle;whiteSpace=wrap;rounded=0;" parent="1" vertex="1">
          <mxGeometry x="5360" y="-3800" width="20" height="30" as="geometry" />
        </mxCell>
        <mxCell id="267" value="1" style="text;html=1;strokeColor=none;fillColor=none;align=center;verticalAlign=middle;whiteSpace=wrap;rounded=0;" parent="1" vertex="1">
          <mxGeometry x="5590" y="-3986" width="20" height="30" as="geometry" />
        </mxCell>
        <mxCell id="268" value="0..*" style="text;html=1;strokeColor=none;fillColor=none;align=center;verticalAlign=middle;whiteSpace=wrap;rounded=0;" parent="1" vertex="1">
          <mxGeometry x="5400" y="-4567.5" width="20" height="30" as="geometry" />
        </mxCell>
        <mxCell id="269" value="1" style="text;html=1;strokeColor=none;fillColor=none;align=center;verticalAlign=middle;whiteSpace=wrap;rounded=0;" parent="1" vertex="1">
          <mxGeometry x="5710" y="-4316" width="20" height="30" as="geometry" />
        </mxCell>
        <mxCell id="271" value="1" style="text;html=1;strokeColor=none;fillColor=none;align=center;verticalAlign=middle;whiteSpace=wrap;rounded=0;" parent="1" vertex="1">
          <mxGeometry x="4140" y="-4180" width="20" height="30" as="geometry" />
        </mxCell>
        <mxCell id="272" value="0..*" style="text;html=1;strokeColor=none;fillColor=none;align=center;verticalAlign=middle;whiteSpace=wrap;rounded=0;" parent="1" vertex="1">
          <mxGeometry x="4250" y="-4170" width="20" height="30" as="geometry" />
        </mxCell>
        <mxCell id="275" value="0..*" style="text;html=1;strokeColor=none;fillColor=none;align=center;verticalAlign=middle;whiteSpace=wrap;rounded=0;" parent="1" vertex="1">
          <mxGeometry x="4800" y="-3370" width="20" height="30" as="geometry" />
        </mxCell>
        <mxCell id="276" value="1" style="text;html=1;strokeColor=none;fillColor=none;align=center;verticalAlign=middle;whiteSpace=wrap;rounded=0;" parent="1" vertex="1">
          <mxGeometry x="5910" y="-3530" width="20" height="30" as="geometry" />
        </mxCell>
        <mxCell id="277" value="0..*" style="text;html=1;strokeColor=none;fillColor=none;align=center;verticalAlign=middle;whiteSpace=wrap;rounded=0;" parent="1" vertex="1">
          <mxGeometry x="5830" y="-3966" width="20" height="30" as="geometry" />
        </mxCell>
        <mxCell id="281" value="1" style="text;html=1;strokeColor=none;fillColor=none;align=center;verticalAlign=middle;whiteSpace=wrap;rounded=0;" parent="1" vertex="1">
          <mxGeometry x="4800" y="-3440" width="20" height="30" as="geometry" />
        </mxCell>
        <mxCell id="282" value="0..*" style="text;html=1;strokeColor=none;fillColor=none;align=center;verticalAlign=middle;whiteSpace=wrap;rounded=0;" parent="1" vertex="1">
          <mxGeometry x="4800" y="-3490" width="20" height="30" as="geometry" />
        </mxCell>
        <mxCell id="283" value="1" style="text;html=1;strokeColor=none;fillColor=none;align=center;verticalAlign=middle;whiteSpace=wrap;rounded=0;" parent="1" vertex="1">
          <mxGeometry x="5790" y="-3986" width="20" height="30" as="geometry" />
        </mxCell>
        <mxCell id="284" value="&amp;lt;missingPerson&amp;gt;&amp;gt;" style="edgeLabel;html=1;align=center;verticalAlign=middle;resizable=0;points=[];" parent="1" vertex="1" connectable="0">
          <mxGeometry x="5069.9960010843215" y="-3460" as="geometry">
            <mxPoint x="-2" y="-4" as="offset" />
          </mxGeometry>
        </mxCell>
        <mxCell id="biBuhSFXarAVXknmqJCp-287" value="&amp;lt;use&amp;gt;&amp;gt;" style="edgeLabel;html=1;align=center;verticalAlign=middle;resizable=0;points=[];" parent="1" vertex="1" connectable="0">
          <mxGeometry x="6180.0023158058275" y="-3759.9999999999995" as="geometry" />
        </mxCell>
        <mxCell id="biBuhSFXarAVXknmqJCp-288" value="IllegalArgumentException" style="swimlane;fontStyle=0;align=center;verticalAlign=top;childLayout=stackLayout;horizontal=1;startSize=55;horizontalStack=0;resizeParent=1;resizeParentMax=0;resizeLast=0;collapsible=0;marginBottom=0;html=1;" parent="1" vertex="1">
          <mxGeometry x="6160" y="-4330" width="200" height="100" as="geometry" />
        </mxCell>
        <mxCell id="biBuhSFXarAVXknmqJCp-289" value="" style="line;strokeWidth=1;fillColor=none;align=left;verticalAlign=middle;spacingTop=-1;spacingLeft=3;spacingRight=3;rotatable=0;labelPosition=right;points=[];portConstraint=eastwest;" parent="biBuhSFXarAVXknmqJCp-288" vertex="1">
          <mxGeometry y="55" width="200" height="45" as="geometry" />
        </mxCell>
        <mxCell id="5gc0bFKOEUMQOeYYkHy9-292" value="&amp;lt;&amp;lt;enumeration&amp;gt;&amp;gt;&lt;br&gt;&lt;b&gt;&amp;nbsp;DietaryRestrictions&lt;/b&gt;" style="swimlane;fontStyle=0;align=center;verticalAlign=top;childLayout=stackLayout;horizontal=1;startSize=42;horizontalStack=0;resizeParent=1;resizeParentMax=0;resizeLast=0;collapsible=0;marginBottom=0;html=1;whiteSpace=wrap;" vertex="1" parent="1">
          <mxGeometry x="4090" y="-3400" width="140" height="220" as="geometry" />
        </mxCell>
        <mxCell id="165" value="AVML&lt;br&gt;DBML&lt;br&gt;GFML&lt;br&gt;KSML&lt;br&gt;LSML&lt;br&gt;MOML&lt;br&gt;PFML&lt;br&gt;VGML&lt;br&gt;VJML" style="text;html=1;strokeColor=none;fillColor=none;align=left;verticalAlign=middle;spacingLeft=4;spacingRight=4;overflow=hidden;rotatable=0;points=[[0,0.5],[1,0.5]];portConstraint=eastwest;" parent="5gc0bFKOEUMQOeYYkHy9-292" vertex="1">
          <mxGeometry y="42" width="140" height="150" as="geometry" />
        </mxCell>
        <mxCell id="5gc0bFKOEUMQOeYYkHy9-297" value="" style="line;strokeWidth=1;fillColor=none;align=left;verticalAlign=middle;spacingTop=-1;spacingLeft=3;spacingRight=3;rotatable=0;labelPosition=right;points=[];portConstraint=eastwest;" vertex="1" parent="5gc0bFKOEUMQOeYYkHy9-292">
          <mxGeometry y="192" width="140" height="8" as="geometry" />
        </mxCell>
        <mxCell id="5gc0bFKOEUMQOeYYkHy9-299" value="+ getRestriction()" style="text;html=1;strokeColor=none;fillColor=none;align=left;verticalAlign=middle;spacingLeft=4;spacingRight=4;overflow=hidden;rotatable=0;points=[[0,0.5],[1,0.5]];portConstraint=eastwest;whiteSpace=wrap;" vertex="1" parent="5gc0bFKOEUMQOeYYkHy9-292">
          <mxGeometry y="200" width="140" height="20" as="geometry" />
        </mxCell>
      </root>
    </mxGraphModel>
  </diagram>
</mxfile>
